#N canvas 321 186 1124 570 10;
#X msg 89 483 disconnect;
#X floatatom 98 403 5 0 0 0 - - -, f 5;
#X obj 79 354 list trim;
#X obj 323 204 list prepend send;
#X obj 81 379 netsend -u -b;
#X obj 304 404 notein;
#X floatatom 302 432 3 0 0 0 - - -, f 3;
#X floatatom 330 433 3 0 0 0 - - -, f 3;
#X obj 307 487 oscformat /note;
#X obj 6 269 oscformat /oscillator/waveform;
#X obj 5 15 hradio 15 1 0 6 0 empty Waveform 0 -8 0 10 -262144 -1 -1
1;
#X obj 388 260 hsl 128 15 0 127 0 0 empty empty empty -2 -8 0 10 -262144
-1 -1 0 1;
#X obj 524 261 hsl 128 15 0 127 0 0 empty empty empty -2 -8 0 10 -262144
-1 -1 0 1;
#X obj 663 261 hsl 128 15 0 127 0 0 empty empty empty -2 -8 0 10 -262144
-1 -1 0 1;
#X obj 343 308 oscformat /loudness/attack;
#X obj 343 335 oscformat /loudness/decay;
#X obj 343 361 oscformat /loudness/sustain;
#X obj 384 282 * 40;
#X obj 521 281 * 40;
#X obj 305 455 list;
#X text 232 411 Keyboard;
#X floatatom 4 76 5 0 0 0 - - -, f 5;
#X obj 5 35 hradio 15 1 0 6 empty empty empty 0 -8 0 10 -262144 -1
-1 1;
#X obj 107 16 hradio 15 1 0 6 empty empty Range 0 -8 0 10 -262144 -1
-1 3;
#X obj 5 55 hradio 15 1 0 6 empty empty empty 0 -8 0 10 -262144 -1
-1 1;
#X obj 107 35 hradio 15 1 0 6 empty empty empty 0 -8 0 10 -262144 -1
-1 2;
#X obj 107 54 hradio 15 1 0 6 empty empty empty 0 -8 0 10 -262144 -1
-1 2;
#X obj 210 34 hsl 128 15 -127 127 0 1 empty empty Tuning -2 -8 0 10
-262144 -1 -1 6350 1;
#X obj 211 54 hsl 128 15 -127 127 0 1 empty empty empty -2 -8 0 10
-262144 -1 -1 6250 1;
#X obj 351 12 hsl 128 15 0 127 0 0 empty empty Gain -2 -8 0 10 -262144
-1 -1 0 1;
#X obj 354 54 hsl 128 15 0 127 0 0 empty empty empty -2 -8 0 10 -262144
-1 -1 0 1;
#X floatatom 5 93 5 0 0 0 - - -, f 5;
#X floatatom 6 111 5 0 0 0 - - -, f 5;
#X floatatom 97 82 5 0 0 0 - - -, f 5;
#X obj 98 193 oscformat /oscillator/range;
#X floatatom 97 100 5 0 0 0 - - -, f 5;
#X floatatom 96 119 5 0 0 0 - - -, f 5;
#X obj 20 309 print;
#X obj 96 162 list 0;
#X obj 140 162 list 1;
#X obj 188 161 list 2;
#X obj 107 222 list 2;
#X obj 7 215 list 0;
#X obj 58 220 list 1;
#X obj 326 141 oscformat /mixer/gain;
#X obj 349 74 list 0;
#X obj 348 96 list 1;
#X obj 350 118 list 2;
#X obj 353 33 hsl 128 15 0 127 0 0 empty empty empty -2 -8 0 10 -262144
-1 -1 0 1;
#X obj 249 76 list 2;
#X obj 198 75 list 1;
#X obj 147 106 oscformat /oscillator/tuning;
#X msg 199 2 0;
#X obj 511 14 hsl 128 15 40 20000 1 0 empty empty Cutoff -2 -8 0 10
-262144 -1 -1 5000 1;
#X floatatom 508 34 5 0 0 0 - - -, f 5;
#X obj 653 14 hsl 128 15 0 10 0 0 empty empty Emphasis -2 -8 0 10 -262144
-1 -1 3800 1;
#X obj 795 14 hsl 128 15 0 10 0 0 empty empty Amount -2 -8 0 10 -262144
-1 -1 0 1;
#X floatatom 792 34 5 0 0 0 - - -, f 5;
#X floatatom 650 34 5 0 0 0 - - -, f 5;
#X obj 508 53 oscformat /filter/cutoff;
#X obj 507 74 oscformat /filter/emphasis;
#X obj 508 96 oscformat /filter/amount;
#X obj 513 132 hsl 128 15 0 127 0 0 empty empty Filter_attack -2 -8
0 10 -262144 -1 -1 0 1;
#X obj 650 132 hsl 128 15 0 127 0 0 empty empty Filter_Decay -2 -8
0 10 -262144 -1 -1 3200 1;
#X obj 789 132 hsl 128 15 0 127 0 0 empty empty Filter_sustain -2 -8
0 10 -262144 -1 -1 0 1;
#X obj 786 152 / 128;
#X obj 510 153 * 40;
#X obj 647 152 * 40;
#X obj 469 179 oscformat /filter/attack;
#X obj 469 206 oscformat /filter/decay;
#X obj 469 232 oscformat /filter/sustain;
#X text 440 407 Glide;
#X obj 494 407 hsl 128 15 0 127 0 0 empty empty empty -2 -8 0 10 -262144
-1 -1 0 1;
#X floatatom 493 428 5 0 0 0 - - -, f 5;
#X obj 493 447 oscformat /note/glide;
#X obj 679 376 oscformat /note/calibrate;
#X msg 679 354 0;
#X msg 88 453 connect 192.168.1.9 9876;
#X connect 0 0 4 0;
#X connect 2 0 4 0;
#X connect 3 0 2 0;
#X connect 4 0 1 0;
#X connect 5 0 6 0;
#X connect 5 1 7 0;
#X connect 6 0 19 0;
#X connect 7 0 19 1;
#X connect 8 0 3 0;
#X connect 9 0 3 0;
#X connect 10 0 21 0;
#X connect 11 0 17 0;
#X connect 12 0 18 0;
#X connect 13 0 16 0;
#X connect 14 0 3 0;
#X connect 15 0 3 0;
#X connect 16 0 3 0;
#X connect 17 0 14 0;
#X connect 18 0 15 0;
#X connect 19 0 8 0;
#X connect 21 0 42 0;
#X connect 22 0 31 0;
#X connect 23 0 33 0;
#X connect 24 0 32 0;
#X connect 25 0 35 0;
#X connect 26 0 36 0;
#X connect 27 0 50 0;
#X connect 28 0 49 0;
#X connect 29 0 45 0;
#X connect 30 0 47 0;
#X connect 31 0 43 0;
#X connect 32 0 41 0;
#X connect 33 0 38 0;
#X connect 34 0 3 0;
#X connect 35 0 39 0;
#X connect 36 0 40 0;
#X connect 38 0 34 0;
#X connect 38 0 37 0;
#X connect 39 0 34 0;
#X connect 40 0 34 0;
#X connect 41 0 9 0;
#X connect 42 0 9 0;
#X connect 43 0 9 0;
#X connect 43 0 37 0;
#X connect 44 0 3 0;
#X connect 45 0 44 0;
#X connect 46 0 44 0;
#X connect 47 0 44 0;
#X connect 48 0 46 0;
#X connect 49 0 51 0;
#X connect 50 0 51 0;
#X connect 51 0 3 0;
#X connect 52 0 27 0;
#X connect 52 0 28 0;
#X connect 53 0 54 0;
#X connect 54 0 59 0;
#X connect 55 0 58 0;
#X connect 56 0 57 0;
#X connect 57 0 61 0;
#X connect 58 0 60 0;
#X connect 59 0 3 0;
#X connect 60 0 3 0;
#X connect 61 0 3 0;
#X connect 62 0 66 0;
#X connect 63 0 67 0;
#X connect 64 0 65 0;
#X connect 65 0 70 0;
#X connect 66 0 68 0;
#X connect 67 0 69 0;
#X connect 68 0 3 0;
#X connect 69 0 3 0;
#X connect 70 0 3 0;
#X connect 72 0 73 0;
#X connect 73 0 74 0;
#X connect 74 0 3 0;
#X connect 75 0 3 0;
#X connect 76 0 75 0;
#X connect 77 0 4 0;
